<svg width="107" height="102" viewBox="0 0 107 102" fill="none" xmlns="http://www.w3.org/2000/svg">
<path d="M91.875 66.7084L91.875 67.2084C92.1511 67.2084 92.375 66.9845 92.375 66.7084H91.875ZM91.875 1.16675H92.375C92.375 0.890606 92.1511 0.666748 91.875 0.666748V1.16675ZM51.5416 66.7084L51.5416 66.2084C51.4429 66.2084 51.3464 66.2376 51.2643 66.2924L51.5416 66.7084ZM21.2916 86.8751H20.7916C20.7916 87.0595 20.8931 87.2289 21.0557 87.3159C21.2183 87.4029 21.4156 87.3934 21.569 87.2911L21.2916 86.8751ZM21.2916 66.7084H21.7916C21.7916 66.4323 21.5678 66.2084 21.2916 66.2084V66.7084ZM1.125 66.7084H0.625C0.625 66.9845 0.848858 67.2084 1.125 67.2084V66.7084ZM1.125 1.16675V0.666748C0.848858 0.666748 0.625 0.890606 0.625 1.16675H1.125ZM92.375 66.7084V1.16675H91.375V66.7084H92.375ZM51.5416 67.2084L91.875 67.2084L91.875 66.2084L51.5416 66.2084L51.5416 67.2084ZM21.569 87.2911L51.819 67.1245L51.2643 66.2924L21.0143 86.4591L21.569 87.2911ZM20.7916 66.7084V86.8751H21.7916V66.7084H20.7916ZM1.125 67.2084H21.2916V66.2084H1.125V67.2084ZM0.625 1.16675V66.7084H1.625V1.16675H0.625ZM91.875 0.666748H1.125V1.66675H91.875V0.666748Z" fill="#324E8C"/>
<path d="M30.895 45.234C30.0216 40.9546 29.585 37.1993 29.585 33.968C29.585 25.06 33.6023 20.606 41.637 20.606V25.06C39.3663 25.06 37.7506 25.6276 36.79 26.763C35.8293 27.8983 35.349 29.645 35.349 32.003V35.147H41.506V45.234H30.895Z" fill="#324E8C"/>
<path d="M61.6943 20.606C62.4803 24.8853 62.8733 28.597 62.8733 31.741C62.8733 40.7363 58.8996 45.234 50.9523 45.234V40.649C53.1356 40.649 54.7076 40.0813 55.6683 38.946C56.629 37.8106 57.1093 36.1076 57.1093 33.837V30.562H51.0833V20.606H61.6943Z" fill="#324E8C"/>
<path d="M92 1L102.5 11.5V78M102.5 78L91.5 67M102.5 78H64L33.5 98.5L21.3064 86.9116V78H12.5L1 66.5" stroke="#324E8C"/>
</svg>
